<svg xmlns="http://www.w3.org/2000/svg" id="facebook" width="20" height="20" viewBox="0 0 20 20">
    <defs>
        <clipPath id="clip-path">
            <circle id="Ellipse_1" cx="10" cy="10" r="10" class="cls-1"/>
        </clipPath>
        <style>
            .cls-1{fill:none}
        </style>
    </defs>
    <g id="Group_548">
        <g id="Mask_Group_1" clip-path="url(#clip-path)">
            <circle id="Ellipse_2" cx="10" cy="10" r="10" class="cls-1"/>
            <path id="Path_6936" fill="#fff" d="M17.5 0h-15A2.5 2.5 0 0 0 0 2.5v15A2.5 2.5 0 0 0 2.5 20H10v-6.875H7.5V10H10V7.5a3.75 3.75 0 0 1 3.75-3.75h2.5v3.125H15c-.69 0-1.25-.065-1.25.625V10h3.125l-1.25 3.125H13.75V20h3.75a2.5 2.5 0 0 0 2.5-2.5v-15A2.5 2.5 0 0 0 17.5 0z"/>
        </g>
    </g>
</svg>
