<svg xmlns="http://www.w3.org/2000/svg" width="20" height="16.687" viewBox="0 0 20 16.687">
    <path fill="#fff" d="M13.065-15.656a.275.275 0 0 0 .268-.281v-1.125a.275.275 0 0 0-.268-.281H.268a.275.275 0 0 0-.268.281v1.125a.275.275 0 0 0 .268.281zm6.667 7.5A.275.275 0 0 0 20-8.437v-1.125a.275.275 0 0 0-.268-.281H.268A.275.275 0 0 0 0-9.562v1.125a.275.275 0 0 0 .268.281zm-6.667 7.5a.275.275 0 0 0 .268-.281v-1.125a.275.275 0 0 0-.268-.281H.268A.275.275 0 0 0 0-2.062v1.125a.275.275 0 0 0 .268.281z" transform="translate(0 17.344)"/>
</svg>
