<svg xmlns="http://www.w3.org/2000/svg" width="19" height="19" viewBox="0 0 19 19">
    <defs>
        <style>
            .cls-1{fill:#fff}
        </style>
    </defs>
    <g id="linkedin" transform="translate(0 .668)">
        <path id="Path_6931" d="M2.3-.668A2.169 2.169 0 0 0 0 1.547a2.154 2.154 0 0 0 2.251 2.215h.026a2.169 2.169 0 0 0 2.3-2.215A2.161 2.161 0 0 0 2.3-.668zm0 0" class="cls-1"/>
        <path id="Path_6932" d="M8.109 198.312h4.073v12.82H8.109zm0 0" class="cls-1" transform="translate(-7.869 -192.8)"/>
        <path id="Path_6933" d="M228.959 188.625c-2.2 0-3.671 2.16-3.671 2.16v-1.859h-4.073v12.82h4.073v-7.159a3.045 3.045 0 0 1 .134-1.04 2.242 2.242 0 0 1 2.09-1.558c1.474 0 2.063 1.176 2.063 2.9v6.858h4.073V194.4c0-3.943-2.01-5.775-4.689-5.775zm0 0" class="cls-1" transform="translate(-214.648 -183.414)"/>
    </g>
</svg>
