<svg xmlns="http://www.w3.org/2000/svg" width="20" height="13.75" viewBox="0 0 20 13.75">
    <g>
        <g>
            <path fill="#fff" d="M19.15 81.325c-.542-.965-1.131-1.142-2.33-1.21S12.611 80 10 80s-5.626.034-6.822.114-1.786.245-2.334 1.211S0 83.949 0 86.871v.01c0 2.91.287 4.583.846 5.536s1.136 1.14 2.333 1.221 4.21.111 6.824.111 5.62-.041 6.819-.11 1.788-.256 2.33-1.221c.564-.954.849-2.626.849-5.536v-.01c-.001-2.923-.286-4.583-.851-5.547zm-11.65 9.3v-7.5l6.25 3.75z" transform="translate(-112.884 -76.926) translate(112.884 76.926) translate(0 -80)"/>
        </g>
    </g>
</svg>
